<svg xmlns="http://www.w3.org/2000/svg" xmlns:xlink="http://www.w3.org/1999/xlink" width="30" height="30" viewBox="0 0 30 30">
    <defs>
        <rect id="s6hn94quma" width="30" height="30" x="0" y="0" rx="10"/>
    </defs>
    <g fill="none" fill-rule="evenodd">
        <g>
            <g transform="translate(-1224.000000, -798.000000) translate(1224.000000, 798.000000)">
                <mask id="2i5yeqeukb" fill="#fff">
                    <use xlink:href="#s6hn94quma"/>
                </mask>
                <use fill="#D8D8D8" xlink:href="#s6hn94quma"/>
                <g mask="url(#2i5yeqeukb)">
                    <rect width="30" height="30" fill="#EAEDF1" rx="6"/>
                    <circle cx="15" cy="15" r="10" fill="#0F1743" opacity=".203"/>
                    <path fill="#1A2B31" d="M16.005 15c.303 0 .549.262.549.585v.041c0 .167-.067.326-.184.438l-.395.287c-.292.224-.391.528-.398.752l-.033 1.055c.013.008.028.014.042.022.018.006.034.015.053.02.075.026.16.042.253.041.181.005.396-.042.587-.11.186-.069.346-.165.45-.289.055-.06.096-.128.126-.2.015-.035.027-.071.036-.107.004-.018.008-.035.01-.051l.002-.022v-.01l.013-.078c.051-.203.24-.348.459-.336.248.013.438.224.424.47-.002.028-.004.04-.006.053l-.003.02-.003.018c-.004.024-.01.047-.015.068-.01.045-.023.086-.037.128-.028.081-.062.16-.102.234-.08.149-.184.284-.304.397-.24.233-.535.368-.818.446-.072.022-.141.036-.21.049-.07.015-.141.024-.214.032-.144.017-.294.02-.448.004-.154-.014-.314-.053-.468-.122-.026-.011-.052-.024-.077-.038-.092-.05-.2-.053-.297-.013l-.002.001c-.064.03-.132.05-.198.076-.068.022-.137.04-.205.06-.277.07-.574.097-.872.066-.296-.03-.596-.116-.858-.261-.139-.064-.254-.154-.377-.238l-.046-.032-.04-.036-.082-.073-.162-.146c-.207-.188-.209-.517.01-.706.186-.161.475-.147.647.029l.008.008.034.036.104.113.051.057.026.029.029.023c.077.062.148.136.233.182.162.114.344.183.536.223.193.04.4.045.607.013.052-.01.104-.018.156-.03.05-.015.104-.024.154-.043.041-.012.081-.027.121-.042l-.031-1.019-.002-.048c-.01-.205-.048-.404-.347-.642l-.45-.369c-.113-.11-.177-.266-.177-.43 0-.323.246-.585.549-.585h1.592z" opacity=".6"/>
                </g>
            </g>
        </g>
    </g>
</svg>
